<svg width="210" height="55" viewBox="0 0 210 55" fill="none" xmlns="http://www.w3.org/2000/svg">
<path d="M172.331 11.4583H196.992C197.537 11.4583 198.06 11.6998 198.446 12.1295C198.831 12.5593 199.047 13.1422 199.047 13.75C199.047 14.3578 198.831 14.9407 198.446 15.3704C198.06 15.8002 197.537 16.0416 196.992 16.0416H172.331C171.786 16.0416 171.263 15.8002 170.878 15.3704C170.492 14.9407 170.276 14.3578 170.276 13.75C170.276 13.1422 170.492 12.5593 170.878 12.1295C171.263 11.6998 171.786 11.4583 172.331 11.4583ZM203.158 4.58331V9.16665H166.165V4.58331H203.158ZM190.827 18.3333H194.937V50.4166H190.827V18.3333ZM174.386 18.3333H178.496V50.4166H174.386V18.3333ZM182.606 18.3333H186.717V50.4166H182.606V18.3333Z" fill="#020202"/>
<path d="M12.3308 11.4583H36.9923C37.5374 11.4583 38.0601 11.6998 38.4455 12.1295C38.8309 12.5593 39.0474 13.1422 39.0474 13.75C39.0474 14.3578 38.8309 14.9407 38.4455 15.3704C38.0601 15.8002 37.5374 16.0416 36.9923 16.0416H12.3308C11.7857 16.0416 11.263 15.8002 10.8776 15.3704C10.4922 14.9407 10.2756 14.3578 10.2756 13.75C10.2756 13.1422 10.4922 12.5593 10.8776 12.1295C11.263 11.6998 11.7857 11.4583 12.3308 11.4583ZM43.1577 4.58331V9.16665H6.16539V4.58331H43.1577ZM30.8269 18.3333H34.9372V50.4166H30.8269V18.3333ZM14.3859 18.3333H18.4962V50.4166H14.3859V18.3333ZM22.6064 18.3333H26.7167V50.4166H22.6064V18.3333Z" fill="#020202"/>
<path d="M49.7734 31.1836H53.1836C53.2617 31.8711 53.625 32.4297 54.2734 32.8594C54.9297 33.2812 55.7305 33.4922 56.6758 33.4922C57.6133 33.4922 58.375 33.293 58.9609 32.8945C59.5547 32.4883 59.8516 31.9727 59.8516 31.3477C59.8516 30.8008 59.6328 30.3594 59.1953 30.0234C58.7578 29.6875 58.0273 29.4062 57.0039 29.1797L54.8008 28.6992C51.6992 28.0352 50.1484 26.4609 50.1484 23.9766C50.1484 22.4297 50.75 21.1797 51.9531 20.2266C53.1641 19.2734 54.7188 18.7969 56.6172 18.7969C58.5703 18.7969 60.1289 19.2617 61.293 20.1914C62.457 21.1133 63.0547 22.3438 63.0859 23.8828H59.7695C59.7148 23.1719 59.3984 22.6133 58.8203 22.207C58.25 21.793 57.5195 21.5859 56.6289 21.5859C55.7539 21.5859 55.0469 21.7773 54.5078 22.1602C53.9766 22.543 53.7109 23.0469 53.7109 23.6719C53.7109 24.1875 53.9258 24.6055 54.3555 24.9258C54.793 25.2461 55.5 25.5195 56.4766 25.7461L58.5273 26.1797C60.2227 26.5391 61.457 27.1016 62.2305 27.8672C63.0039 28.625 63.3906 29.6484 63.3906 30.9375C63.3906 32.5781 62.7734 33.8828 61.5391 34.8516C60.3047 35.8125 58.6367 36.293 56.5352 36.293C54.4961 36.293 52.8711 35.8398 51.6602 34.9336C50.457 34.0195 49.8281 32.7695 49.7734 31.1836ZM76.7617 23.4375L72.4492 36H68.582L64.2344 23.4375H67.9023L70.5156 32.9766H70.5859L73.1875 23.4375H76.7617ZM82.5039 33.7266C83.2617 33.7266 83.9023 33.5078 84.4258 33.0703C84.957 32.625 85.2227 32.0664 85.2227 31.3945V30.4805L82.5742 30.6445C81.9336 30.6914 81.4375 30.8516 81.0859 31.125C80.7422 31.3984 80.5703 31.7578 80.5703 32.2031C80.5703 32.6719 80.7461 33.043 81.0977 33.3164C81.4492 33.5898 81.918 33.7266 82.5039 33.7266ZM81.3789 36.1992C80.168 36.1992 79.1641 35.8438 78.3672 35.1328C77.5703 34.4219 77.1719 33.5078 77.1719 32.3906C77.1719 31.25 77.5938 30.3555 78.4375 29.707C79.2812 29.0586 80.4883 28.6875 82.0586 28.5938L85.2227 28.4062V27.5742C85.2227 26.9961 85.0312 26.543 84.6484 26.2148C84.2734 25.8867 83.7617 25.7227 83.1133 25.7227C82.4883 25.7227 81.9766 25.8633 81.5781 26.1445C81.1875 26.4258 80.9492 26.8047 80.8633 27.2812H77.7344C77.7969 26.0469 78.3242 25.0547 79.3164 24.3047C80.3086 23.5469 81.625 23.168 83.2656 23.168C84.875 23.168 86.1641 23.5508 87.1328 24.3164C88.1016 25.082 88.5859 26.0977 88.5859 27.3633V36H85.2812V34.0781H85.2109C84.8672 34.7344 84.3438 35.2539 83.6406 35.6367C82.9375 36.0117 82.1836 36.1992 81.3789 36.1992ZM90.8594 36V23.4375H94.2812V36H90.8594ZM93.8711 21.5391C93.5195 21.8828 93.0859 22.0547 92.5703 22.0547C92.0547 22.0547 91.6211 21.8828 91.2695 21.5391C90.918 21.1953 90.7422 20.7773 90.7422 20.2852C90.7422 19.7852 90.918 19.3672 91.2695 19.0312C91.6211 18.6875 92.0547 18.5156 92.5703 18.5156C93.0859 18.5156 93.5195 18.6875 93.8711 19.0312C94.2227 19.3672 94.3984 19.7852 94.3984 20.2852C94.3984 20.7773 94.2227 21.1953 93.8711 21.5391ZM100.984 31.1836H104.395C104.473 31.8711 104.836 32.4297 105.484 32.8594C106.141 33.2812 106.941 33.4922 107.887 33.4922C108.824 33.4922 109.586 33.293 110.172 32.8945C110.766 32.4883 111.062 31.9727 111.062 31.3477C111.062 30.8008 110.844 30.3594 110.406 30.0234C109.969 29.6875 109.238 29.4062 108.215 29.1797L106.012 28.6992C102.91 28.0352 101.359 26.4609 101.359 23.9766C101.359 22.4297 101.961 21.1797 103.164 20.2266C104.375 19.2734 105.93 18.7969 107.828 18.7969C109.781 18.7969 111.34 19.2617 112.504 20.1914C113.668 21.1133 114.266 22.3438 114.297 23.8828H110.98C110.926 23.1719 110.609 22.6133 110.031 22.207C109.461 21.793 108.73 21.5859 107.84 21.5859C106.965 21.5859 106.258 21.7773 105.719 22.1602C105.188 22.543 104.922 23.0469 104.922 23.6719C104.922 24.1875 105.137 24.6055 105.566 24.9258C106.004 25.2461 106.711 25.5195 107.688 25.7461L109.738 26.1797C111.434 26.5391 112.668 27.1016 113.441 27.8672C114.215 28.625 114.602 29.6484 114.602 30.9375C114.602 32.5781 113.984 33.8828 112.75 34.8516C111.516 35.8125 109.848 36.293 107.746 36.293C105.707 36.293 104.082 35.8398 102.871 34.9336C101.668 34.0195 101.039 32.7695 100.984 31.1836ZM117.402 20.543H120.824V23.4375H123.145V26.0156H120.824V32.0273C120.824 32.9727 121.316 33.4453 122.301 33.4453C122.621 33.4453 122.898 33.4258 123.133 33.3867V35.9062C122.734 36 122.191 36.0469 121.504 36.0469C120.027 36.0469 118.973 35.7812 118.34 35.25C117.715 34.7188 117.402 33.8398 117.402 32.6133V26.0156H115.633V23.4375H117.402V20.543ZM135.145 34.5352C134.027 35.6914 132.512 36.2695 130.598 36.2695C128.684 36.2695 127.168 35.6875 126.051 34.5234C124.934 33.3594 124.375 31.7539 124.375 29.707C124.375 27.6836 124.938 26.0898 126.062 24.9258C127.195 23.7539 128.707 23.168 130.598 23.168C132.496 23.168 134.008 23.7539 135.133 24.9258C136.258 26.0898 136.82 27.6836 136.82 29.707C136.82 31.7617 136.262 33.3711 135.145 34.5352ZM130.598 33.6562C131.441 33.6562 132.109 33.3125 132.602 32.625C133.094 31.9375 133.34 30.9688 133.34 29.7188C133.34 28.4844 133.094 27.5195 132.602 26.8242C132.109 26.1289 131.441 25.7812 130.598 25.7812C129.754 25.7812 129.082 26.1289 128.582 26.8242C128.09 27.5195 127.844 28.4844 127.844 29.7188C127.844 30.9688 128.09 31.9375 128.582 32.625C129.074 33.3125 129.746 33.6562 130.598 33.6562ZM138.59 36V23.4375H141.895V25.6992H141.965C142.184 24.9023 142.551 24.293 143.066 23.8711C143.582 23.4492 144.211 23.2383 144.953 23.2383C145.312 23.2383 145.637 23.2812 145.926 23.3672V26.3789C145.605 26.2461 145.191 26.1797 144.684 26.1797C143.84 26.1797 143.184 26.4258 142.715 26.918C142.246 27.4102 142.012 28.0977 142.012 28.9805V36H138.59ZM152.547 25.6992C151.805 25.6992 151.184 25.9531 150.684 26.4609C150.191 26.9688 149.914 27.6172 149.852 28.4062H155.184C155.145 27.6016 154.883 26.9492 154.398 26.4492C153.922 25.9492 153.305 25.6992 152.547 25.6992ZM155.23 32.1562H158.371C158.184 33.3906 157.566 34.3867 156.52 35.1445C155.48 35.8945 154.188 36.2695 152.641 36.2695C150.711 36.2695 149.195 35.6914 148.094 34.5352C147 33.3789 146.453 31.793 146.453 29.7773C146.453 27.7695 147 26.168 148.094 24.9727C149.188 23.7695 150.66 23.168 152.512 23.168C154.332 23.168 155.781 23.7383 156.859 24.8789C157.938 26.0195 158.477 27.5469 158.477 29.4609V30.5039H149.816V30.7148C149.816 31.6133 150.078 32.3438 150.602 32.9062C151.133 33.4609 151.832 33.7383 152.699 33.7383C153.324 33.7383 153.863 33.5977 154.316 33.3164C154.77 33.0273 155.074 32.6406 155.23 32.1562Z" fill="#020202"/>
</svg>
